<svg xmlns="http://www.w3.org/2000/svg" xmlns:xlink="http://www.w3.org/1999/xlink" width="500" zoomAndPan="magnify" viewBox="0 0 375 149.999998" height="200" preserveAspectRatio="xMidYMid meet" version="1.0"><defs><clipPath id="2e4d49a75f"><path d="M 46.496094 44.929688 L 110.996094 44.929688 L 110.996094 129 L 46.496094 129 Z M 46.496094 44.929688 " clip-rule="nonzero"/></clipPath><clipPath id="1b7a283763"><path d="M 67 145 L 90 145 L 90 149.929688 L 67 149.929688 Z M 67 145 " clip-rule="nonzero"/></clipPath><clipPath id="6717081e89"><path d="M 10 18 L 114 18 L 114 111 L 10 111 Z M 10 18 " clip-rule="nonzero"/></clipPath><clipPath id="3b0b90aaa2"><path d="M 0 51.441406 L 103.476562 0.125 L 135.464844 64.628906 L 31.988281 115.945312 Z M 0 51.441406 " clip-rule="nonzero"/></clipPath><clipPath id="40b9edf993"><path d="M 0 51.441406 L 103.476562 0.125 L 135.464844 64.628906 L 31.988281 115.945312 Z M 0 51.441406 " clip-rule="nonzero"/></clipPath><clipPath id="c2dc604578"><path d="M 38 37 L 103 37 L 103 84 L 38 84 Z M 38 37 " clip-rule="nonzero"/></clipPath><clipPath id="88054a7213"><path d="M 0 51.441406 L 103.476562 0.125 L 135.464844 64.628906 L 31.988281 115.945312 Z M 0 51.441406 " clip-rule="nonzero"/></clipPath><clipPath id="df26a2ec0e"><path d="M 0 51.441406 L 103.476562 0.125 L 135.464844 64.628906 L 31.988281 115.945312 Z M 0 51.441406 " clip-rule="nonzero"/></clipPath></defs><rect x="-37.5" width="450" fill="#ffffff" y="-15" height="179.999997" fill-opacity="1"/><rect x="-37.5" width="450" fill="#ffffff" y="-15" height="179.999997" fill-opacity="1"/><g clip-path="url(#2e4d49a75f)"><path fill="#1f1a17" d="M 78.6875 48.34375 C 62.847656 48.34375 49.964844 61.226562 49.964844 77.0625 C 49.964844 83.804688 52.734375 89.902344 55.445312 94.976562 C 56.417969 96.789062 57.46875 98.589844 58.570312 100.324219 C 58.960938 100.9375 59.402344 101.554688 59.867188 102.207031 C 62.136719 105.398438 64.964844 109.367188 65.136719 117.046875 L 65.136719 120 C 65.136719 122.761719 67.382812 125.007812 70.144531 125.007812 L 87.226562 125.007812 C 89.988281 125.007812 92.234375 122.761719 92.234375 120 L 92.234375 116.6875 L 92.238281 116.628906 C 92.496094 109.226562 95.265625 105.339844 97.488281 102.214844 C 97.957031 101.558594 98.394531 100.9375 98.789062 100.324219 C 101.550781 95.996094 103.472656 92.410156 104.847656 89.035156 C 105.796875 86.695312 106.46875 84.511719 106.894531 82.355469 C 107.234375 80.65625 107.410156 78.875 107.410156 77.0625 C 107.410156 61.226562 94.523438 48.34375 78.6875 48.34375 Z M 87.226562 128.433594 L 70.144531 128.433594 C 65.492188 128.433594 61.707031 124.652344 61.707031 120 L 61.707031 117.085938 C 61.558594 110.496094 59.28125 107.292969 57.074219 104.195312 C 56.582031 103.507812 56.121094 102.855469 55.679688 102.167969 C 54.527344 100.359375 53.433594 98.484375 52.421875 96.59375 C 49.511719 91.140625 46.535156 84.558594 46.535156 77.0625 C 46.535156 59.335938 60.957031 44.914062 78.6875 44.914062 C 96.414062 44.914062 110.835938 59.335938 110.835938 77.0625 C 110.835938 79.101562 110.640625 81.109375 110.257812 83.023438 C 109.789062 85.394531 109.054688 87.785156 108.023438 90.328125 C 106.570312 93.898438 104.554688 97.660156 101.679688 102.167969 C 101.242188 102.855469 100.773438 103.511719 100.28125 104.203125 C 98.125 107.234375 95.894531 110.367188 95.664062 116.71875 L 95.664062 120 C 95.664062 124.652344 91.882812 128.433594 87.226562 128.433594 " fill-opacity="1" fill-rule="nonzero"/></g><g clip-path="url(#1b7a283763)"><path fill="#1f1a17" d="M 67.679688 145.632812 L 74.269531 148.8125 C 76.710938 149.988281 80.664062 149.988281 83.101562 148.8125 L 89.691406 145.632812 L 67.679688 145.632812 " fill-opacity="1" fill-rule="nonzero"/></g><path fill="#1f1a17" d="M 91.035156 144.507812 C 91.035156 145.453125 90.269531 146.222656 89.316406 146.222656 L 68.054688 146.222656 C 67.105469 146.222656 66.335938 145.453125 66.335938 144.507812 C 66.335938 143.554688 67.105469 142.789062 68.054688 142.789062 L 89.316406 142.789062 C 90.269531 142.789062 91.035156 143.554688 91.035156 144.507812 " fill-opacity="1" fill-rule="nonzero"/><path fill="#1f1a17" d="M 92.460938 139.5625 C 92.460938 140.511719 91.691406 141.28125 90.742188 141.28125 L 66.628906 141.28125 C 65.679688 141.28125 64.910156 140.511719 64.910156 139.5625 C 64.910156 138.617188 65.679688 137.847656 66.628906 137.847656 L 90.742188 137.847656 C 91.691406 137.847656 92.460938 138.617188 92.460938 139.5625 " fill-opacity="1" fill-rule="nonzero"/><path fill="#1f1a17" d="M 92.460938 134.625 C 92.460938 135.570312 91.691406 136.34375 90.742188 136.34375 L 66.628906 136.34375 C 65.679688 136.34375 64.910156 135.570312 64.910156 134.625 C 64.910156 133.675781 65.679688 132.90625 66.628906 132.90625 L 90.742188 132.90625 C 91.691406 132.90625 92.460938 133.675781 92.460938 134.625 " fill-opacity="1" fill-rule="nonzero"/><path fill="#1f1a17" d="M 93.957031 129.683594 C 93.957031 130.632812 93.1875 131.398438 92.238281 131.398438 L 65.132812 131.398438 C 64.1875 131.398438 63.417969 130.632812 63.417969 129.683594 C 63.417969 128.738281 64.1875 127.96875 65.132812 127.96875 L 92.238281 127.96875 C 93.1875 127.96875 93.957031 128.738281 93.957031 129.683594 " fill-opacity="1" fill-rule="nonzero"/><g clip-path="url(#6717081e89)"><g clip-path="url(#3b0b90aaa2)"><g clip-path="url(#40b9edf993)"><path fill="#e77813" d="M 82.617188 22.128906 L 52.910156 25.34375 L 52.5625 25.382812 L 52.320312 25.632812 L 31.78125 47.339844 L 10.761719 69.546875 L 17.144531 68.855469 L 24.511719 68.058594 C 24.441406 71.3125 25.609375 76.8125 31.546875 84.53125 C 30.507812 85.695312 30.21875 87.414062 30.953125 88.898438 C 31.480469 89.957031 32.417969 90.671875 33.480469 90.953125 C 37.296875 100.582031 31.683594 104.96875 29.722656 106.15625 C 29.105469 106.527344 28.738281 107.242188 28.894531 107.949219 C 29.5625 110.953125 38.167969 110.054688 43.152344 109.269531 C 45.355469 108.921875 46.988281 107.011719 46.949219 104.785156 C 46.8125 96.085938 41.167969 90.507812 38.261719 88.203125 C 38.511719 87.304688 38.445312 86.3125 37.996094 85.40625 C 37.222656 83.84375 35.550781 83.027344 33.917969 83.261719 C 31.8125 80.074219 27.496094 72.835938 27.984375 67.683594 L 36.160156 66.796875 C 35.347656 62.253906 41.476562 57.453125 43.617188 55.78125 C 48.3125 52.105469 55.019531 48.035156 62.507812 44.324219 C 69.957031 40.628906 77.214844 37.765625 82.941406 36.265625 C 85.507812 35.589844 92.78125 33.683594 95.984375 36.832031 L 108.605469 23.5 L 113.015625 18.835938 Z M 82.617188 22.128906 " fill-opacity="1" fill-rule="nonzero"/></g></g></g><g clip-path="url(#c2dc604578)"><g clip-path="url(#88054a7213)"><g clip-path="url(#df26a2ec0e)"><path fill="#e77813" d="M 38.804688 66.964844 L 46.886719 83.261719 C 52.277344 73.992188 60.355469 66.144531 70.679688 61.023438 C 81.007812 55.902344 92.144531 54.222656 102.785156 55.542969 L 94.6875 39.210938 C 90.386719 30.546875 34.503906 58.300781 38.804688 66.964844 Z M 38.804688 66.964844 " fill-opacity="1" fill-rule="nonzero"/></g></g></g></svg>