<svg xmlns="http://www.w3.org/2000/svg" xmlns:xlink="http://www.w3.org/1999/xlink" width="300" zoomAndPan="magnify" viewBox="0 0 224.87999 149.999998" height="200" preserveAspectRatio="xMidYMid meet" version="1.0"><defs><g/><clipPath id="293e38ec52"><path d="M 42.523438 41.132812 L 101.742188 41.132812 L 101.742188 118 L 42.523438 118 Z M 42.523438 41.132812 " clip-rule="nonzero"/></clipPath><clipPath id="7604f15e2e"><path d="M 9 17 L 104 17 L 104 101 L 9 101 Z M 9 17 " clip-rule="nonzero"/></clipPath><clipPath id="dd93956d8f"><path d="M 0 47.089844 L 94.691406 0.128906 L 123.664062 58.554688 L 28.976562 105.511719 Z M 0 47.089844 " clip-rule="nonzero"/></clipPath><clipPath id="cfb0a910db"><path d="M 0 47.089844 L 94.691406 0.128906 L 123.664062 58.554688 L 28.976562 105.511719 Z M 0 47.089844 " clip-rule="nonzero"/></clipPath><clipPath id="9bda6d167c"><path d="M 35 34 L 95 34 L 95 77 L 35 77 Z M 35 34 " clip-rule="nonzero"/></clipPath><clipPath id="62813bb3c6"><path d="M 0 47.089844 L 94.691406 0.128906 L 123.664062 58.554688 L 28.976562 105.511719 Z M 0 47.089844 " clip-rule="nonzero"/></clipPath><clipPath id="f7b225a649"><path d="M 0 47.089844 L 94.691406 0.128906 L 123.664062 58.554688 L 28.976562 105.511719 Z M 0 47.089844 " clip-rule="nonzero"/></clipPath><clipPath id="39e31a52cb"><path d="M 213 98 L 224.761719 98 L 224.761719 116 L 213 116 Z M 213 98 " clip-rule="nonzero"/></clipPath></defs><g clip-path="url(#293e38ec52)"><path fill="#1f1a17" d="M 71.964844 44.253906 C 57.480469 44.253906 45.699219 56.035156 45.699219 70.519531 C 45.699219 76.683594 48.234375 82.257812 50.714844 86.902344 C 51.601562 88.558594 52.5625 90.203125 53.570312 91.792969 C 53.929688 92.351562 54.332031 92.914062 54.757812 93.515625 C 56.832031 96.429688 59.417969 100.0625 59.574219 107.085938 L 59.574219 109.785156 C 59.574219 112.308594 61.628906 114.363281 64.15625 114.363281 L 79.777344 114.363281 C 82.304688 114.363281 84.359375 112.308594 84.359375 109.785156 L 84.359375 106.703125 C 84.597656 99.933594 87.128906 96.378906 89.164062 93.519531 C 89.589844 92.921875 89.992188 92.351562 90.351562 91.792969 C 92.875 87.832031 94.636719 84.554688 95.890625 81.46875 C 96.761719 79.328125 97.375 77.328125 97.761719 75.359375 C 98.074219 73.804688 98.234375 72.175781 98.234375 70.519531 C 98.234375 56.035156 86.449219 44.253906 71.964844 44.253906 Z M 79.777344 117.5 L 64.15625 117.5 C 59.898438 117.5 56.441406 114.039062 56.441406 109.785156 L 56.441406 107.121094 C 56.304688 101.09375 54.21875 98.164062 52.203125 95.332031 C 51.753906 94.699219 51.328125 94.105469 50.925781 93.476562 C 49.875 91.824219 48.871094 90.109375 47.949219 88.378906 C 45.285156 83.394531 42.5625 77.375 42.5625 70.519531 C 42.5625 54.304688 55.753906 41.117188 71.964844 41.117188 C 88.179688 41.117188 101.367188 54.304688 101.367188 70.519531 C 101.367188 72.382812 101.191406 74.21875 100.839844 75.96875 C 100.410156 78.136719 99.742188 80.324219 98.796875 82.648438 C 97.46875 85.914062 95.625 89.355469 92.996094 93.476562 C 92.59375 94.105469 92.167969 94.707031 91.71875 95.339844 C 89.742188 98.109375 87.703125 100.976562 87.496094 106.785156 L 87.496094 109.785156 C 87.496094 114.039062 84.035156 117.5 79.777344 117.5 " fill-opacity="1" fill-rule="nonzero"/></g><path fill="#1f1a17" d="M 61.902344 133.226562 L 67.929688 136.136719 C 70.160156 137.210938 73.773438 137.210938 76.003906 136.136719 L 82.03125 133.226562 L 61.902344 133.226562 " fill-opacity="1" fill-rule="nonzero"/><path fill="#1f1a17" d="M 83.261719 132.195312 C 83.261719 133.0625 82.558594 133.765625 81.691406 133.765625 L 62.242188 133.765625 C 61.375 133.765625 60.671875 133.0625 60.671875 132.195312 C 60.671875 131.328125 61.375 130.625 62.242188 130.625 L 81.691406 130.625 C 82.558594 130.625 83.261719 131.328125 83.261719 132.195312 " fill-opacity="1" fill-rule="nonzero"/><path fill="#1f1a17" d="M 84.5625 127.675781 C 84.5625 128.546875 83.859375 129.25 82.992188 129.25 L 60.941406 129.25 C 60.074219 129.25 59.371094 128.546875 59.371094 127.675781 C 59.371094 126.808594 60.074219 126.105469 60.941406 126.105469 L 82.992188 126.105469 C 83.859375 126.105469 84.5625 126.808594 84.5625 127.675781 " fill-opacity="1" fill-rule="nonzero"/><path fill="#1f1a17" d="M 84.5625 123.160156 C 84.5625 124.027344 83.859375 124.730469 82.992188 124.730469 L 60.941406 124.730469 C 60.074219 124.730469 59.371094 124.027344 59.371094 123.160156 C 59.371094 122.292969 60.074219 121.589844 60.941406 121.589844 L 82.992188 121.589844 C 83.859375 121.589844 84.5625 122.292969 84.5625 123.160156 " fill-opacity="1" fill-rule="nonzero"/><path fill="#1f1a17" d="M 85.929688 118.640625 C 85.929688 119.507812 85.226562 120.210938 84.359375 120.210938 L 59.570312 120.210938 C 58.707031 120.210938 58.003906 119.507812 58.003906 118.640625 C 58.003906 117.777344 58.707031 117.070312 59.570312 117.070312 L 84.359375 117.070312 C 85.226562 117.070312 85.929688 117.777344 85.929688 118.640625 " fill-opacity="1" fill-rule="nonzero"/><g clip-path="url(#7604f15e2e)"><g clip-path="url(#dd93956d8f)"><g clip-path="url(#cfb0a910db)"><path fill="#e77813" d="M 75.558594 20.277344 L 48.390625 23.21875 L 48.074219 23.253906 L 47.851562 23.484375 L 29.066406 43.335938 L 9.84375 63.644531 L 15.679688 63.015625 L 22.417969 62.285156 C 22.351562 65.261719 23.421875 70.292969 28.851562 77.355469 C 27.902344 78.417969 27.636719 79.988281 28.308594 81.347656 C 28.789062 82.316406 29.648438 82.96875 30.621094 83.226562 C 34.109375 92.03125 28.976562 96.046875 27.183594 97.128906 C 26.621094 97.472656 26.285156 98.125 26.425781 98.769531 C 27.035156 101.515625 34.910156 100.699219 39.46875 99.980469 C 41.480469 99.660156 42.972656 97.914062 42.941406 95.875 C 42.8125 87.921875 37.652344 82.820312 34.992188 80.710938 C 35.222656 79.886719 35.160156 78.980469 34.75 78.152344 C 34.042969 76.726562 32.515625 75.976562 31.019531 76.191406 C 29.09375 73.273438 25.148438 66.65625 25.59375 61.941406 L 33.070312 61.132812 C 32.328125 56.980469 37.933594 52.585938 39.890625 51.054688 C 44.1875 47.695312 50.320312 43.972656 57.167969 40.578125 C 63.984375 37.199219 70.621094 34.582031 75.859375 33.207031 C 78.203125 32.589844 84.859375 30.847656 87.789062 33.726562 L 99.328125 21.53125 L 103.363281 17.269531 Z M 75.558594 20.277344 " fill-opacity="1" fill-rule="nonzero"/></g></g></g><g clip-path="url(#9bda6d167c)"><g clip-path="url(#62813bb3c6)"><g clip-path="url(#f7b225a649)"><path fill="#e77813" d="M 35.492188 61.285156 L 42.882812 76.191406 C 47.8125 67.714844 55.199219 60.535156 64.644531 55.851562 C 74.089844 51.167969 84.273438 49.632812 94.007812 50.839844 L 86.597656 35.898438 C 82.667969 27.976562 31.558594 53.363281 35.492188 61.285156 Z M 35.492188 61.285156 " fill-opacity="1" fill-rule="nonzero"/></g></g></g><g fill="#e77813" fill-opacity="1"><g transform="translate(98.845095, 115.599378)"><g><path d="M 12.941406 -10.507812 C 12.941406 -10.855469 13.203125 -11.03125 13.375 -11.261719 C 14.738281 -13.058594 16.070312 -14.910156 17.023438 -16.996094 C 17.371094 -17.71875 17.691406 -18.5 17.804688 -19.3125 C 18.152344 -21.136719 16.90625 -22.265625 15.113281 -21.828125 C 14.851562 -21.773438 14.59375 -21.65625 14.332031 -21.539062 C 13.695312 -21.25 13.117188 -20.816406 12.59375 -20.351562 C 10.855469 -18.847656 9.523438 -17.023438 8.394531 -15.027344 C 8.25 -14.824219 8.195312 -14.535156 7.960938 -14.390625 C 7.847656 -14.476562 7.875 -14.59375 7.902344 -14.679688 C 8.019531 -16.070312 8.164062 -17.457031 8.28125 -18.847656 C 8.367188 -19.832031 8.484375 -20.84375 8.570312 -21.859375 C 8.597656 -22.46875 8.597656 -22.46875 7.933594 -22.496094 C 7.613281 -22.523438 7.296875 -22.554688 6.949219 -22.554688 C 6.28125 -22.554688 6.253906 -22.554688 6.023438 -21.886719 C 5.617188 -20.875 5.355469 -19.804688 5.183594 -18.730469 C 4.34375 -13.609375 4.109375 -8.484375 4.3125 -3.300781 C 4.34375 -2.75 4.226562 -2.402344 3.707031 -2.113281 C 3.011719 -1.738281 2.375 -1.246094 1.910156 -0.609375 C 1.101562 0.433594 1.332031 1.304688 2.519531 1.824219 C 3.011719 2.054688 3.5625 2.140625 4.082031 2.230469 C 4.402344 2.257812 4.691406 2.316406 4.71875 2.722656 C 4.71875 2.980469 4.921875 3.097656 5.152344 3.097656 C 5.703125 3.097656 6.253906 3.097656 6.804688 3.097656 C 7.0625 3.097656 7.265625 2.980469 7.238281 2.722656 C 7.152344 2.085938 7.585938 1.96875 8.078125 1.851562 C 10.65625 1.15625 13 -0.0585938 15.027344 -1.851562 C 16.386719 -3.039062 17.546875 -4.429688 18.210938 -6.136719 C 18.441406 -6.746094 18.820312 -7.035156 19.398438 -7.265625 C 20.5 -7.703125 21.597656 -8.195312 22.699219 -8.6875 C 23.160156 -8.886719 23.191406 -9.0625 22.929688 -9.496094 C 22.757812 -9.84375 22.523438 -9.785156 22.234375 -9.671875 C 21.222656 -9.234375 20.179688 -8.800781 19.136719 -8.367188 C 18.820312 -8.222656 18.675781 -8.308594 18.558594 -8.628906 C 18.039062 -10.105469 16.878906 -10.710938 15.429688 -10.886719 C 14.5625 -10.972656 13.753906 -10.742188 12.941406 -10.507812 Z M 8.019531 -9.121094 C 9.03125 -12.449219 10.363281 -15.632812 12.679688 -18.296875 C 13.261719 -18.992188 13.808594 -19.6875 14.5625 -20.238281 C 14.882812 -20.46875 15.230469 -20.875 15.632812 -20.554688 C 15.980469 -20.296875 15.722656 -19.859375 15.578125 -19.515625 C 14.996094 -17.835938 14.246094 -16.242188 13.289062 -14.738281 C 11.640625 -12.132812 9.726562 -9.699219 7.875 -7.238281 C 7.816406 -7.179688 7.757812 -7.0625 7.585938 -7.0625 C 7.613281 -7.789062 7.816406 -8.453125 8.019531 -9.121094 Z M 11 -7.703125 C 11.753906 -8.308594 12.476562 -8.917969 13.347656 -9.351562 C 13.636719 -9.496094 13.925781 -9.613281 14.246094 -9.699219 C 15.257812 -10.015625 16.011719 -9.523438 16.183594 -8.484375 C 16.214844 -8.25 16.183594 -7.992188 16.183594 -7.757812 C 16.214844 -7.355469 16.011719 -7.09375 15.632812 -6.949219 C 13.117188 -5.964844 10.597656 -5.039062 8.046875 -4.140625 C 7.992188 -4.109375 7.902344 -4.140625 7.730469 -4.140625 C 8.714844 -5.472656 9.726562 -6.71875 11 -7.703125 Z M 14.96875 -4.894531 C 13.203125 -2.34375 10.855469 -0.578125 7.960938 0.464844 C 7.324219 0.695312 7.265625 0.664062 7.238281 -0.0273438 C 7.238281 -0.609375 7.265625 -1.1875 7.238281 -1.738281 C 7.238281 -2.113281 7.355469 -2.375 7.730469 -2.488281 C 8.046875 -2.605469 8.339844 -2.75 8.628906 -2.894531 C 10.65625 -3.707031 12.652344 -4.515625 14.679688 -5.328125 C 14.851562 -5.386719 15.027344 -5.53125 15.230469 -5.441406 C 15.285156 -5.210938 15.085938 -5.066406 14.96875 -4.894531 Z M 4.488281 0.664062 C 4.515625 0.839844 4.574219 1.070312 4.257812 1.070312 C 4.023438 1.070312 3.851562 0.898438 3.820312 0.664062 C 3.820312 0.289062 3.9375 -0.0585938 4.285156 -0.289062 C 4.546875 0.0273438 4.488281 0.375 4.488281 0.664062 Z M 4.488281 0.664062 "/></g></g></g><g fill="#1f1a17" fill-opacity="1"><g transform="translate(120.94234, 115.599378)"><g><path d="M 12.132812 -8.394531 C 11.667969 -8.714844 11.4375 -8.714844 11.148438 -8.367188 C 10.855469 -8.019531 10.625 -7.671875 10.363281 -7.324219 C 9.148438 -5.617188 7.875 -3.9375 6.515625 -2.34375 C 6.28125 -2.054688 6.050781 -1.796875 5.734375 -1.59375 C 5.296875 -1.304688 4.949219 -1.332031 4.574219 -1.738281 C 4.34375 -1.996094 4.140625 -2.316406 4.054688 -2.632812 C 3.5625 -4.199219 3.183594 -5.789062 3.125 -7.441406 C 3.125 -7.847656 3.242188 -8.019531 3.648438 -8.136719 C 5.90625 -8.800781 7.152344 -10.335938 7.5 -12.625 C 7.671875 -13.898438 7.296875 -14.96875 6.226562 -15.722656 C 5.183594 -16.445312 4.054688 -16.300781 2.980469 -15.691406 C 2.027344 -15.113281 1.332031 -14.273438 0.8125 -13.289062 C -0.0585938 -11.609375 -0.40625 -9.816406 -0.492188 -7.933594 C -0.519531 -7.324219 -0.433594 -6.746094 -0.320312 -6.136719 C -0.0585938 -4.515625 0.519531 -3.011719 1.59375 -1.707031 C 2.925781 -0.0859375 6.253906 0.433594 7.902344 -1.796875 C 9.351562 -3.734375 10.769531 -5.703125 12.132812 -7.730469 C 12.277344 -7.933594 12.476562 -8.164062 12.132812 -8.394531 Z M 3.617188 -11.957031 C 3.792969 -12.679688 4.054688 -13.40625 4.34375 -14.101562 C 4.429688 -14.332031 4.574219 -14.59375 4.863281 -14.5625 C 5.125 -14.535156 5.242188 -14.300781 5.355469 -14.070312 C 5.355469 -14.011719 5.386719 -13.953125 5.386719 -13.898438 C 5.878906 -12.390625 4.980469 -9.988281 3.617188 -9.179688 C 3.503906 -9.089844 3.359375 -9.03125 3.15625 -9.089844 C 3.15625 -10.046875 3.386719 -11 3.617188 -11.957031 Z M 3.617188 -11.957031 "/></g></g></g><g fill="#1f1a17" fill-opacity="1"><g transform="translate(131.85693, 115.599378)"><g><path d="M 9.929688 -3.964844 C 9.960938 -4.3125 9.960938 -4.691406 9.988281 -5.039062 C 10.277344 -7.238281 10.363281 -9.496094 10.25 -11.726562 C 10.21875 -12.507812 10.164062 -13.316406 9.988281 -14.070312 C 9.929688 -14.445312 9.757812 -14.621094 9.378906 -14.5625 C 8.800781 -14.476562 8.195312 -14.417969 7.585938 -14.332031 C 7.441406 -14.300781 7.238281 -14.273438 7.179688 -14.128906 C 7.007812 -13.753906 6.746094 -13.867188 6.484375 -13.953125 C 5.90625 -14.128906 5.296875 -14.101562 4.71875 -13.953125 C 2.980469 -13.550781 1.824219 -12.476562 0.984375 -11 C -0.144531 -9.003906 -0.636719 -6.832031 -0.464844 -4.546875 C -0.40625 -3.910156 -0.261719 -3.300781 0.0273438 -2.722656 C 0.203125 -2.316406 0.464844 -1.96875 0.925781 -1.824219 C 2.054688 -1.503906 3.214844 -1.5625 3.878906 -2.691406 C 4.023438 -2.980469 4.226562 -3.242188 4.371094 -3.53125 C 4.804688 -4.457031 5.242188 -5.355469 5.703125 -6.28125 C 5.761719 -6.425781 5.789062 -6.660156 6.050781 -6.628906 C 6.050781 -6.371094 6.078125 -6.136719 6.050781 -5.90625 C 5.964844 -4.71875 5.820312 -3.5625 5.734375 -2.402344 C 5.675781 -1.679688 5.414062 -1.273438 4.71875 -1.042969 C 3.617188 -0.664062 2.578125 -0.144531 1.648438 0.519531 C 0.8125 1.128906 0.117188 1.824219 -0.203125 2.867188 C -0.722656 4.574219 0.261719 6.023438 2.054688 6.195312 C 3.820312 6.339844 5.328125 5.761719 6.515625 4.457031 C 7.09375 3.851562 7.585938 3.15625 7.992188 2.402344 C 8.6875 1.070312 9.148438 -0.320312 9.46875 -1.765625 C 9.554688 -2.171875 9.757812 -2.488281 10.105469 -2.75 C 11.117188 -3.53125 12.074219 -4.402344 12.96875 -5.328125 C 13.40625 -5.820312 13.808594 -6.339844 14.246094 -6.832031 C 14.503906 -7.152344 14.332031 -7.355469 14.070312 -7.585938 C 13.78125 -7.847656 13.636719 -7.554688 13.492188 -7.382812 C 13.375 -7.265625 13.289062 -7.121094 13.203125 -7.007812 C 12.277344 -5.820312 11.234375 -4.835938 10.105469 -3.878906 C 10.046875 -3.910156 9.988281 -3.9375 9.929688 -3.964844 Z M 6.484375 -11.203125 C 5.964844 -9.671875 5.296875 -8.222656 4.601562 -6.773438 C 4.109375 -5.734375 3.617188 -4.691406 3.097656 -3.675781 C 2.953125 -3.386719 2.835938 -2.953125 2.460938 -3.039062 C 2.027344 -3.125 2.113281 -3.589844 2.085938 -3.910156 C 1.996094 -4.949219 2.257812 -5.933594 2.433594 -6.917969 C 2.78125 -8.714844 3.242188 -10.480469 4.3125 -12.015625 C 4.632812 -12.449219 4.921875 -12.855469 5.414062 -13.085938 C 6.136719 -13.433594 6.746094 -13.058594 6.71875 -12.132812 C 6.71875 -11.871094 6.601562 -11.550781 6.484375 -11.203125 Z M 3.765625 4.488281 C 3.734375 4.515625 3.707031 4.515625 3.707031 4.546875 C 3.359375 4.980469 3.011719 5.441406 2.375 5.296875 C 1.707031 5.183594 1.390625 4.660156 1.214844 4.054688 C 1.042969 3.53125 1.15625 3.039062 1.390625 2.546875 C 1.59375 2.054688 1.941406 1.621094 2.34375 1.246094 C 3.183594 0.492188 4.167969 0 5.386719 -0.464844 C 5.066406 1.417969 4.691406 3.039062 3.765625 4.488281 Z M 3.765625 4.488281 "/></g></g></g><g fill="#1f1a17" fill-opacity="1"><g transform="translate(145.145513, 115.599378)"><g><path d="M 8.511719 -8.453125 C 8.019531 -8.628906 7.960938 -8.628906 7.671875 -8.105469 C 7.644531 -8.019531 7.585938 -7.902344 7.527344 -7.816406 C 6.570312 -5.933594 5.617188 -4.082031 4.660156 -2.199219 C 4.488281 -1.851562 4.3125 -1.535156 4.109375 -1.214844 C 3.820312 -0.78125 3.5625 -0.8125 3.300781 -1.246094 C 3.070312 -1.679688 2.925781 -2.171875 2.835938 -2.632812 C 2.632812 -3.878906 2.632812 -5.152344 2.578125 -6.398438 C 2.488281 -8.6875 2.722656 -10.972656 2.894531 -13.261719 C 2.980469 -14.390625 2.953125 -14.417969 1.765625 -14.445312 C 1.707031 -14.445312 1.621094 -14.445312 1.535156 -14.445312 C 1.246094 -14.476562 1.070312 -14.359375 0.984375 -14.070312 C 0.898438 -13.839844 0.78125 -13.636719 0.722656 -13.375 C 0.171875 -11.234375 -0.171875 -9.0625 -0.171875 -6.6875 C -0.203125 -5.585938 -0.117188 -4.34375 0.171875 -3.097656 C 0.375 -2.316406 0.636719 -1.59375 1.128906 -0.957031 C 2.34375 0.609375 4.863281 0.464844 5.847656 -1.246094 C 6.109375 -1.707031 6.339844 -2.230469 6.542969 -2.722656 C 7.265625 -4.371094 7.992188 -6.023438 8.714844 -7.671875 C 8.832031 -7.992188 8.976562 -8.28125 8.511719 -8.453125 Z M 2.402344 -15.980469 C 3.183594 -16.011719 3.648438 -16.445312 3.648438 -17.167969 C 3.648438 -17.863281 3.15625 -18.296875 2.316406 -18.269531 C 1.679688 -18.269531 1.15625 -17.660156 1.1875 -16.964844 C 1.1875 -16.300781 1.59375 -15.980469 2.402344 -15.980469 Z M 2.402344 -15.980469 "/></g></g></g><g fill="#1f1a17" fill-opacity="1"><g transform="translate(152.875473, 115.599378)"><g><path d="M 16.269531 -8.453125 C 15.777344 -8.570312 15.722656 -8.222656 15.605469 -7.902344 C 14.996094 -6.109375 14.332031 -4.3125 13.433594 -2.605469 C 13.144531 -2.054688 12.855469 -1.503906 12.449219 -1.011719 C 12.21875 -0.722656 11.984375 -0.347656 11.550781 -0.433594 C 11.058594 -0.492188 11.089844 -0.984375 10.945312 -1.332031 C 10.914062 -1.417969 10.914062 -1.535156 10.886719 -1.648438 C 10.421875 -3.734375 10.625 -5.820312 10.828125 -7.902344 C 10.945312 -9.03125 10.972656 -10.132812 10.855469 -11.261719 C 10.800781 -12.042969 10.65625 -12.824219 10.25 -13.550781 C 9.699219 -14.535156 8.742188 -14.96875 7.613281 -14.707031 C 6.570312 -14.476562 5.820312 -13.839844 5.183594 -13.027344 C 4.34375 -11.984375 3.734375 -10.828125 3.183594 -9.640625 C 3.070312 -9.410156 3.011719 -9.148438 2.691406 -8.886719 C 2.691406 -9.234375 2.691406 -9.496094 2.691406 -9.757812 C 2.691406 -11.203125 2.691406 -12.652344 2.691406 -14.101562 C 2.691406 -14.300781 2.691406 -14.535156 2.664062 -14.765625 C 2.632812 -15.113281 2.460938 -15.285156 2.085938 -15.285156 C 1.59375 -15.257812 1.101562 -15.257812 0.609375 -15.257812 C 0.230469 -15.257812 0 -15.085938 -0.0273438 -14.707031 C -0.0585938 -14.535156 -0.117188 -14.390625 -0.144531 -14.214844 C -0.753906 -10.597656 -0.925781 -6.949219 -0.753906 -3.273438 C -0.722656 -2.289062 -0.550781 -1.273438 -0.40625 -0.289062 C -0.289062 0.550781 -0.171875 0.609375 0.664062 0.550781 C 0.957031 0.519531 1.214844 0.519531 1.503906 0.492188 C 2.230469 0.492188 2.230469 0.464844 2.375 -0.261719 C 2.894531 -3.039062 3.5625 -5.761719 4.488281 -8.425781 C 5.066406 -10.074219 5.933594 -11.609375 7.035156 -12.96875 C 7.238281 -13.203125 7.441406 -13.550781 7.816406 -13.460938 C 8.25 -13.375 8.28125 -12.941406 8.339844 -12.625 C 8.570312 -11.582031 8.65625 -10.539062 8.597656 -9.46875 C 8.511719 -7.5 8.28125 -5.53125 8.394531 -3.5625 C 8.453125 -2.605469 8.597656 -1.648438 8.945312 -0.753906 C 9.148438 -0.261719 9.4375 0.203125 9.960938 0.464844 C 10.945312 0.898438 12.421875 0.664062 13.203125 -0.0273438 C 13.519531 -0.347656 13.808594 -0.664062 14.042969 -1.042969 C 15.375 -3.070312 16.183594 -5.328125 16.792969 -7.671875 C 16.9375 -8.222656 16.792969 -8.308594 16.269531 -8.453125 Z M 16.269531 -8.453125 "/></g></g></g><g fill="#e77813" fill-opacity="1"><g transform="translate(168.275406, 115.023439)"><g><path d="M 6.398438 -0.609375 C 6.339844 -0.78125 6.3125 -0.925781 6.28125 -1.101562 C 5.789062 -3.9375 5.558594 -6.773438 5.703125 -9.671875 C 5.820312 -12.363281 6.050781 -15.054688 6.253906 -17.746094 C 6.3125 -18.730469 6.3125 -19.714844 6.28125 -20.699219 C 6.226562 -21.484375 6.167969 -21.539062 5.328125 -21.570312 C 5.007812 -21.597656 4.691406 -21.597656 4.34375 -21.628906 C 3.53125 -21.628906 3.53125 -21.628906 3.300781 -20.816406 C 3.242188 -20.613281 3.183594 -20.382812 3.125 -20.179688 C 2.460938 -17.574219 1.96875 -14.910156 1.679688 -12.21875 C 1.417969 -9.671875 1.304688 -7.09375 1.648438 -4.546875 C 1.851562 -3.15625 2.113281 -1.765625 2.75 -0.519531 C 3.53125 1.011719 4.285156 1.621094 6.398438 1.449219 C 7.121094 1.390625 7.671875 1.070312 8.105469 0.492188 C 8.65625 -0.230469 9.0625 -1.042969 9.378906 -1.882812 C 9.84375 -3.183594 10.191406 -4.488281 10.539062 -5.820312 C 10.625 -6.050781 10.65625 -6.3125 10.886719 -6.660156 C 11.058594 -6.167969 11.175781 -5.789062 11.320312 -5.414062 C 12.363281 -2.75 14.214844 -1.476562 16.964844 -1.5625 C 18.558594 -1.621094 19.917969 -2.113281 20.84375 -3.503906 C 21.136719 -3.996094 21.367188 -4.515625 21.539062 -5.066406 C 21.773438 -5.761719 21.945312 -6.484375 22.0625 -7.210938 C 22.148438 -7.816406 22.175781 -7.789062 22.726562 -7.644531 C 23.25 -7.46875 23.742188 -7.324219 24.234375 -7.210938 C 25.421875 -6.917969 26.605469 -6.890625 27.824219 -7.035156 C 28.082031 -7.09375 28.285156 -7.152344 28.285156 -7.46875 C 28.285156 -7.902344 28.027344 -7.933594 27.679688 -7.902344 C 26.085938 -7.847656 24.550781 -8.195312 23.105469 -8.945312 C 22.554688 -9.234375 22.292969 -9.613281 22.351562 -10.308594 C 22.4375 -12.390625 22.378906 -14.503906 21.859375 -16.5625 C 21.597656 -17.660156 21.191406 -18.703125 20.5 -19.601562 C 19.917969 -20.296875 19.253906 -20.84375 18.382812 -21.105469 C 16.761719 -21.570312 15.460938 -20.757812 15.199219 -19.109375 C 14.996094 -17.863281 15.285156 -16.707031 15.691406 -15.578125 C 16.503906 -13.261719 17.835938 -11.261719 19.601562 -9.613281 C 19.917969 -9.324219 20.0625 -9.03125 19.976562 -8.597656 C 19.6875 -7.0625 19.28125 -5.585938 18.5 -4.199219 C 18.355469 -3.964844 18.210938 -3.734375 18.007812 -3.5625 C 17.546875 -3.097656 17.054688 -3.097656 16.589844 -3.589844 C 16.242188 -3.9375 16.039062 -4.402344 15.835938 -4.835938 C 15.054688 -6.601562 14.679688 -8.484375 14.332031 -10.363281 C 14.070312 -11.609375 13.867188 -12.882812 13.460938 -14.101562 C 13.316406 -14.535156 13.117188 -14.765625 12.625 -14.707031 C 12.277344 -14.648438 11.929688 -14.679688 11.582031 -14.648438 C 10.855469 -14.621094 10.800781 -14.5625 10.65625 -13.867188 C 10.507812 -13.144531 10.421875 -12.421875 10.25 -11.695312 C 9.871094 -10.015625 9.4375 -8.308594 8.976562 -6.628906 C 8.539062 -4.921875 8.105469 -3.242188 7.324219 -1.648438 C 7.121094 -1.214844 6.917969 -0.78125 6.515625 -0.375 C 6.457031 -0.519531 6.398438 -0.578125 6.398438 -0.609375 Z M 17.226562 -18.820312 C 17.226562 -18.875 17.226562 -18.933594 17.226562 -18.992188 C 17.253906 -19.425781 17.167969 -19.976562 17.632812 -20.152344 C 18.007812 -20.265625 18.328125 -19.832031 18.617188 -19.542969 C 19.136719 -18.964844 19.484375 -18.296875 19.714844 -17.574219 C 20.351562 -15.664062 20.410156 -13.722656 20.207031 -11.753906 C 18.585938 -13.867188 17.253906 -16.070312 17.226562 -18.820312 Z M 17.226562 -18.820312 "/></g></g></g><g fill="#1f1a17" fill-opacity="1"><g transform="translate(194.826031, 115.023439)"><g><path d="M 8.511719 -8.453125 C 8.019531 -8.628906 7.960938 -8.628906 7.671875 -8.105469 C 7.644531 -8.019531 7.585938 -7.902344 7.527344 -7.816406 C 6.570312 -5.933594 5.617188 -4.082031 4.660156 -2.199219 C 4.488281 -1.851562 4.3125 -1.535156 4.109375 -1.214844 C 3.820312 -0.78125 3.5625 -0.8125 3.300781 -1.246094 C 3.070312 -1.679688 2.925781 -2.171875 2.835938 -2.632812 C 2.632812 -3.878906 2.632812 -5.152344 2.578125 -6.398438 C 2.488281 -8.6875 2.722656 -10.972656 2.894531 -13.261719 C 2.980469 -14.390625 2.953125 -14.417969 1.765625 -14.445312 C 1.707031 -14.445312 1.621094 -14.445312 1.535156 -14.445312 C 1.246094 -14.476562 1.070312 -14.359375 0.984375 -14.070312 C 0.898438 -13.839844 0.78125 -13.636719 0.722656 -13.375 C 0.171875 -11.234375 -0.171875 -9.0625 -0.171875 -6.6875 C -0.203125 -5.585938 -0.117188 -4.34375 0.171875 -3.097656 C 0.375 -2.316406 0.636719 -1.59375 1.128906 -0.957031 C 2.34375 0.609375 4.863281 0.464844 5.847656 -1.246094 C 6.109375 -1.707031 6.339844 -2.230469 6.542969 -2.722656 C 7.265625 -4.371094 7.992188 -6.023438 8.714844 -7.671875 C 8.832031 -7.992188 8.976562 -8.28125 8.511719 -8.453125 Z M 2.402344 -15.980469 C 3.183594 -16.011719 3.648438 -16.445312 3.648438 -17.167969 C 3.648438 -17.863281 3.15625 -18.296875 2.316406 -18.269531 C 1.679688 -18.269531 1.15625 -17.660156 1.1875 -16.964844 C 1.1875 -16.300781 1.59375 -15.980469 2.402344 -15.980469 Z M 2.402344 -15.980469 "/></g></g></g><g fill="#1f1a17" fill-opacity="1"><g transform="translate(202.555991, 115.023439)"><g><path d="M 2.835938 -12.652344 C 3.589844 -10.855469 4.34375 -9.0625 4.921875 -7.238281 C 5.242188 -6.226562 5.242188 -6.226562 4.257812 -5.761719 C 3.15625 -5.242188 2.140625 -4.632812 1.417969 -3.617188 C 0.203125 -1.851562 0.839844 0.289062 2.867188 0.984375 C 4.402344 1.503906 5.878906 1.359375 7.265625 0.464844 C 8.019531 -0.0273438 8.539062 -0.722656 8.773438 -1.621094 C 8.976562 -2.433594 9.0625 -3.273438 8.917969 -4.140625 C 8.832031 -4.574219 8.773438 -4.980469 8.6875 -5.414062 C 8.539062 -6.167969 8.539062 -6.167969 9.265625 -6.457031 C 9.671875 -6.601562 10.074219 -6.773438 10.480469 -6.949219 C 11.203125 -7.324219 11.898438 -7.789062 12.535156 -8.28125 C 12.710938 -8.425781 12.914062 -8.570312 12.796875 -8.832031 C 12.652344 -9.089844 12.390625 -9.148438 12.101562 -9.089844 C 11.839844 -9.03125 11.640625 -8.886719 11.464844 -8.742188 C 10.65625 -8.195312 9.816406 -7.757812 8.917969 -7.410156 C 8.25 -7.121094 8.222656 -7.121094 8.019531 -7.816406 C 7.179688 -10.363281 5.90625 -12.679688 4.515625 -14.9375 C 4.167969 -15.519531 3.707031 -16.011719 3.15625 -16.414062 C 2.34375 -17.023438 1.765625 -16.792969 1.535156 -15.835938 C 1.359375 -15.140625 1.214844 -14.445312 1.070312 -13.753906 C 0.144531 -9.582031 -0.636719 -5.355469 -2.027344 -1.304688 C -2.230469 -0.78125 -2.375 -0.261719 -2.546875 0.261719 C -2.691406 0.609375 -2.546875 0.722656 -2.199219 0.78125 C -1.5625 0.898438 -1.390625 0.839844 -1.101562 0.144531 C 0.230469 -3.15625 1.304688 -6.542969 1.96875 -10.015625 C 2.140625 -11 2.257812 -11.984375 2.578125 -13.085938 C 2.722656 -12.855469 2.808594 -12.769531 2.835938 -12.652344 Z M 5.703125 -0.78125 C 5.328125 0.230469 4.457031 0.464844 3.617188 -0.171875 C 2.808594 -0.78125 2.519531 -1.738281 2.894531 -2.722656 C 3.300781 -3.820312 4.167969 -4.457031 5.152344 -4.980469 C 5.441406 -5.09375 5.585938 -4.980469 5.644531 -4.71875 C 5.820312 -3.964844 5.964844 -3.214844 5.964844 -2.375 C 5.992188 -1.882812 5.90625 -1.304688 5.703125 -0.78125 Z M 5.703125 -0.78125 "/></g></g></g><g clip-path="url(#39e31a52cb)"><g fill="#1f1a17" fill-opacity="1"><g transform="translate(213.962748, 115.023439)"><g><path d="M 12.132812 -8.394531 C 11.667969 -8.714844 11.4375 -8.714844 11.148438 -8.367188 C 10.855469 -8.019531 10.625 -7.671875 10.363281 -7.324219 C 9.148438 -5.617188 7.875 -3.9375 6.515625 -2.34375 C 6.28125 -2.054688 6.050781 -1.796875 5.734375 -1.59375 C 5.296875 -1.304688 4.949219 -1.332031 4.574219 -1.738281 C 4.34375 -1.996094 4.140625 -2.316406 4.054688 -2.632812 C 3.5625 -4.199219 3.183594 -5.789062 3.125 -7.441406 C 3.125 -7.847656 3.242188 -8.019531 3.648438 -8.136719 C 5.90625 -8.800781 7.152344 -10.335938 7.5 -12.625 C 7.671875 -13.898438 7.296875 -14.96875 6.226562 -15.722656 C 5.183594 -16.445312 4.054688 -16.300781 2.980469 -15.691406 C 2.027344 -15.113281 1.332031 -14.273438 0.8125 -13.289062 C -0.0585938 -11.609375 -0.40625 -9.816406 -0.492188 -7.933594 C -0.519531 -7.324219 -0.433594 -6.746094 -0.320312 -6.136719 C -0.0585938 -4.515625 0.519531 -3.011719 1.59375 -1.707031 C 2.925781 -0.0859375 6.253906 0.433594 7.902344 -1.796875 C 9.351562 -3.734375 10.769531 -5.703125 12.132812 -7.730469 C 12.277344 -7.933594 12.476562 -8.164062 12.132812 -8.394531 Z M 3.617188 -11.957031 C 3.792969 -12.679688 4.054688 -13.40625 4.34375 -14.101562 C 4.429688 -14.332031 4.574219 -14.59375 4.863281 -14.5625 C 5.125 -14.535156 5.242188 -14.300781 5.355469 -14.070312 C 5.355469 -14.011719 5.386719 -13.953125 5.386719 -13.898438 C 5.878906 -12.390625 4.980469 -9.988281 3.617188 -9.179688 C 3.503906 -9.089844 3.359375 -9.03125 3.15625 -9.089844 C 3.15625 -10.046875 3.386719 -11 3.617188 -11.957031 Z M 3.617188 -11.957031 "/></g></g></g></g></svg>