<svg xmlns="http://www.w3.org/2000/svg" xmlns:xlink="http://www.w3.org/1999/xlink" width="500" zoomAndPan="magnify" viewBox="0 0 375 374.999991" height="500" preserveAspectRatio="xMidYMid meet" version="1.0"><defs><g/><clipPath id="913f0be7d3"><path d="M 125.324219 137.628906 L 206.324219 137.628906 L 206.324219 244 L 125.324219 244 Z M 125.324219 137.628906 " clip-rule="nonzero"/></clipPath><clipPath id="f960a93059"><path d="M 80 104 L 210 104 L 210 220 L 80 220 Z M 80 104 " clip-rule="nonzero"/></clipPath><clipPath id="75d4d768a0"><path d="M 66.578125 145.863281 L 197.601562 80.886719 L 237.921875 162.1875 L 106.898438 227.164062 Z M 66.578125 145.863281 " clip-rule="nonzero"/></clipPath><clipPath id="e880eae507"><path d="M 66.578125 145.863281 L 197.601562 80.886719 L 237.921875 162.1875 L 106.898438 227.164062 Z M 66.578125 145.863281 " clip-rule="nonzero"/></clipPath><clipPath id="d29d6c5ad9"><path d="M 115 128 L 197 128 L 197 187 L 115 187 Z M 115 128 " clip-rule="nonzero"/></clipPath><clipPath id="5d52ce8c4d"><path d="M 66.578125 145.863281 L 197.601562 80.886719 L 237.921875 162.1875 L 106.898438 227.164062 Z M 66.578125 145.863281 " clip-rule="nonzero"/></clipPath><clipPath id="2387ba461c"><path d="M 66.578125 145.863281 L 197.601562 80.886719 L 237.921875 162.1875 L 106.898438 227.164062 Z M 66.578125 145.863281 " clip-rule="nonzero"/></clipPath></defs><g clip-path="url(#913f0be7d3)"><path fill="#1f1a17" d="M 165.996094 141.941406 C 145.988281 141.941406 129.707031 158.222656 129.707031 178.230469 C 129.707031 186.746094 133.210938 194.449219 136.636719 200.863281 C 137.863281 203.152344 139.191406 205.425781 140.585938 207.621094 C 141.078125 208.390625 141.632812 209.171875 142.222656 210 C 145.089844 214.03125 148.664062 219.042969 148.878906 228.746094 L 148.878906 232.476562 C 148.878906 235.964844 151.71875 238.804688 155.207031 238.804688 L 176.792969 238.804688 C 180.28125 238.804688 183.117188 235.964844 183.117188 232.476562 L 183.117188 228.292969 L 183.121094 228.21875 C 183.449219 218.867188 186.945312 213.957031 189.753906 210.007812 C 190.34375 209.179688 190.902344 208.394531 191.398438 207.617188 C 194.886719 202.152344 197.316406 197.621094 199.050781 193.359375 C 200.25 190.402344 201.097656 187.640625 201.636719 184.917969 C 202.070312 182.769531 202.289062 180.519531 202.289062 178.230469 C 202.289062 158.222656 186.007812 141.941406 165.996094 141.941406 Z M 176.792969 243.136719 L 155.207031 243.136719 C 149.328125 243.136719 144.546875 238.355469 144.546875 232.476562 L 144.546875 228.796875 C 144.359375 220.472656 141.480469 216.425781 138.695312 212.511719 C 138.074219 211.640625 137.488281 210.816406 136.933594 209.949219 C 135.476562 207.664062 134.09375 205.292969 132.816406 202.90625 C 129.136719 196.019531 125.375 187.703125 125.375 178.230469 C 125.375 155.832031 143.601562 137.609375 165.996094 137.609375 C 188.394531 137.609375 206.617188 155.832031 206.617188 178.230469 C 206.617188 180.808594 206.371094 183.339844 205.886719 185.761719 C 205.292969 188.753906 204.371094 191.777344 203.0625 194.988281 C 201.226562 199.503906 198.679688 204.253906 195.050781 209.949219 C 194.496094 210.820312 193.90625 211.644531 193.285156 212.519531 C 190.558594 216.347656 187.738281 220.308594 187.449219 228.332031 L 187.449219 232.476562 C 187.449219 238.355469 182.667969 243.136719 176.792969 243.136719 " fill-opacity="1" fill-rule="nonzero"/></g><path fill="#1f1a17" d="M 152.09375 264.863281 L 160.417969 268.882812 C 163.5 270.367188 168.496094 270.367188 171.578125 268.882812 L 179.902344 264.863281 L 152.09375 264.863281 " fill-opacity="1" fill-rule="nonzero"/><path fill="#1f1a17" d="M 181.601562 263.441406 C 181.601562 264.636719 180.632812 265.609375 179.429688 265.609375 L 152.566406 265.609375 C 151.367188 265.609375 150.394531 264.636719 150.394531 263.441406 C 150.394531 262.238281 151.367188 261.269531 152.566406 261.269531 L 179.429688 261.269531 C 180.632812 261.269531 181.601562 262.238281 181.601562 263.441406 " fill-opacity="1" fill-rule="nonzero"/><path fill="#1f1a17" d="M 183.402344 257.195312 C 183.402344 258.394531 182.429688 259.367188 181.230469 259.367188 L 150.765625 259.367188 C 149.566406 259.367188 148.59375 258.394531 148.59375 257.195312 C 148.59375 255.996094 149.566406 255.027344 150.765625 255.027344 L 181.230469 255.027344 C 182.429688 255.027344 183.402344 255.996094 183.402344 257.195312 " fill-opacity="1" fill-rule="nonzero"/><path fill="#1f1a17" d="M 183.402344 250.953125 C 183.402344 252.152344 182.429688 253.125 181.230469 253.125 L 150.765625 253.125 C 149.566406 253.125 148.59375 252.152344 148.59375 250.953125 C 148.59375 249.757812 149.566406 248.785156 150.765625 248.785156 L 181.230469 248.785156 C 182.429688 248.785156 183.402344 249.757812 183.402344 250.953125 " fill-opacity="1" fill-rule="nonzero"/><path fill="#1f1a17" d="M 185.289062 244.714844 C 185.289062 245.910156 184.316406 246.882812 183.121094 246.882812 L 148.875 246.882812 C 147.679688 246.882812 146.707031 245.910156 146.707031 244.714844 C 146.707031 243.519531 147.679688 242.546875 148.875 242.546875 L 183.121094 242.546875 C 184.316406 242.546875 185.289062 243.519531 185.289062 244.714844 " fill-opacity="1" fill-rule="nonzero"/><g clip-path="url(#f960a93059)"><g clip-path="url(#75d4d768a0)"><g clip-path="url(#e880eae507)"><path fill="#e77813" d="M 170.96875 108.824219 L 133.433594 112.882812 L 132.992188 112.933594 L 132.6875 113.253906 L 106.734375 140.675781 L 80.179688 168.734375 L 88.242188 167.863281 L 97.550781 166.855469 C 97.460938 170.96875 98.9375 177.917969 106.4375 187.671875 C 105.125 189.140625 104.761719 191.316406 105.691406 193.1875 C 106.355469 194.527344 107.539062 195.429688 108.882812 195.785156 C 113.707031 207.949219 106.613281 213.496094 104.136719 214.992188 C 103.359375 215.464844 102.890625 216.367188 103.089844 217.257812 C 103.929688 221.054688 114.808594 219.921875 121.105469 218.929688 C 123.886719 218.492188 125.949219 216.078125 125.902344 213.261719 C 125.730469 202.273438 118.597656 195.222656 114.921875 192.3125 C 115.238281 191.175781 115.15625 189.921875 114.589844 188.777344 C 113.613281 186.804688 111.5 185.773438 109.433594 186.070312 C 106.773438 182.035156 101.324219 172.894531 101.9375 166.382812 L 112.265625 165.265625 C 111.242188 159.523438 118.988281 153.457031 121.691406 151.34375 C 127.625 146.699219 136.101562 141.558594 145.558594 136.867188 C 154.972656 132.199219 164.144531 128.582031 171.378906 126.683594 C 174.621094 125.832031 183.8125 123.421875 187.859375 127.398438 L 203.804688 110.554688 L 209.378906 104.664062 Z M 170.96875 108.824219 " fill-opacity="1" fill-rule="nonzero"/></g></g></g><g clip-path="url(#d29d6c5ad9)"><g clip-path="url(#5d52ce8c4d)"><g clip-path="url(#2387ba461c)"><path fill="#e77813" d="M 115.613281 165.476562 L 125.824219 186.070312 C 132.632812 174.355469 142.839844 164.4375 155.886719 157.96875 C 168.9375 151.496094 183.003906 149.375 196.453125 151.042969 L 186.21875 130.40625 C 180.785156 119.460938 110.175781 154.53125 115.613281 165.476562 Z M 115.613281 165.476562 " fill-opacity="1" fill-rule="nonzero"/></g></g></g><g fill="#e77813" fill-opacity="1"><g transform="translate(193.521467, 244.492162)"><g><path d="M 17.878906 -14.519531 C 17.878906 -15 18.238281 -15.238281 18.480469 -15.558594 C 20.359375 -18.039062 22.199219 -20.597656 23.519531 -23.480469 C 24 -24.476562 24.4375 -25.558594 24.597656 -26.679688 C 25.078125 -29.199219 23.359375 -30.757812 20.878906 -30.15625 C 20.519531 -30.078125 20.160156 -29.917969 19.796875 -29.757812 C 18.917969 -29.359375 18.117188 -28.757812 17.398438 -28.117188 C 15 -26.039062 13.160156 -23.519531 11.597656 -20.757812 C 11.398438 -20.480469 11.320312 -20.078125 11 -19.878906 C 10.839844 -20 10.878906 -20.160156 10.917969 -20.277344 C 11.078125 -22.199219 11.277344 -24.117188 11.4375 -26.039062 C 11.558594 -27.398438 11.71875 -28.796875 11.839844 -30.199219 C 11.878906 -31.039062 11.878906 -31.039062 10.960938 -31.078125 C 10.519531 -31.117188 10.078125 -31.15625 9.597656 -31.15625 C 8.679688 -31.15625 8.640625 -31.15625 8.320312 -30.238281 C 7.757812 -28.839844 7.398438 -27.359375 7.160156 -25.878906 C 6 -18.796875 5.679688 -11.71875 5.960938 -4.558594 C 6 -3.800781 5.839844 -3.320312 5.121094 -2.917969 C 4.160156 -2.398438 3.28125 -1.71875 2.640625 -0.839844 C 1.519531 0.601562 1.839844 1.800781 3.480469 2.519531 C 4.160156 2.839844 4.917969 2.960938 5.640625 3.078125 C 6.078125 3.121094 6.480469 3.199219 6.519531 3.757812 C 6.519531 4.121094 6.800781 4.28125 7.121094 4.28125 C 7.878906 4.28125 8.640625 4.28125 9.398438 4.28125 C 9.757812 4.28125 10.039062 4.121094 10 3.757812 C 9.878906 2.878906 10.480469 2.71875 11.160156 2.558594 C 14.71875 1.601562 17.957031 -0.078125 20.757812 -2.558594 C 22.636719 -4.199219 24.238281 -6.121094 25.160156 -8.480469 C 25.476562 -9.320312 26 -9.71875 26.796875 -10.039062 C 28.316406 -10.640625 29.839844 -11.320312 31.359375 -12 C 31.996094 -12.277344 32.039062 -12.519531 31.679688 -13.121094 C 31.4375 -13.597656 31.117188 -13.519531 30.71875 -13.359375 C 29.316406 -12.757812 27.878906 -12.160156 26.4375 -11.558594 C 26 -11.359375 25.796875 -11.480469 25.636719 -11.917969 C 24.917969 -13.960938 23.320312 -14.800781 21.320312 -15.039062 C 20.117188 -15.160156 19 -14.839844 17.878906 -14.519531 Z M 11.078125 -12.597656 C 12.480469 -17.199219 14.320312 -21.597656 17.519531 -25.277344 C 18.320312 -26.238281 19.078125 -27.199219 20.117188 -27.957031 C 20.558594 -28.277344 21.039062 -28.839844 21.597656 -28.398438 C 22.078125 -28.039062 21.71875 -27.4375 21.519531 -26.957031 C 20.71875 -24.636719 19.679688 -22.4375 18.359375 -20.359375 C 16.078125 -16.757812 13.4375 -13.398438 10.878906 -10 C 10.800781 -9.917969 10.71875 -9.757812 10.480469 -9.757812 C 10.519531 -10.757812 10.800781 -11.679688 11.078125 -12.597656 Z M 15.199219 -10.640625 C 16.238281 -11.480469 17.238281 -12.320312 18.4375 -12.917969 C 18.839844 -13.121094 19.238281 -13.277344 19.679688 -13.398438 C 21.078125 -13.839844 22.117188 -13.160156 22.359375 -11.71875 C 22.398438 -11.398438 22.359375 -11.039062 22.359375 -10.71875 C 22.398438 -10.160156 22.117188 -9.800781 21.597656 -9.597656 C 18.117188 -8.238281 14.640625 -6.960938 11.121094 -5.71875 C 11.039062 -5.679688 10.917969 -5.71875 10.679688 -5.71875 C 12.039062 -7.558594 13.4375 -9.28125 15.199219 -10.640625 Z M 20.679688 -6.757812 C 18.238281 -3.238281 15 -0.800781 11 0.640625 C 10.121094 0.960938 10.039062 0.921875 10 -0.0390625 C 10 -0.839844 10.039062 -1.640625 10 -2.398438 C 10 -2.917969 10.160156 -3.28125 10.679688 -3.441406 C 11.121094 -3.601562 11.519531 -3.800781 11.917969 -4 C 14.71875 -5.121094 17.480469 -6.238281 20.277344 -7.359375 C 20.519531 -7.441406 20.757812 -7.640625 21.039062 -7.519531 C 21.117188 -7.199219 20.839844 -7 20.679688 -6.757812 Z M 6.199219 0.921875 C 6.238281 1.160156 6.320312 1.480469 5.878906 1.480469 C 5.558594 1.480469 5.320312 1.238281 5.28125 0.921875 C 5.28125 0.398438 5.441406 -0.078125 5.917969 -0.398438 C 6.28125 0.0390625 6.199219 0.519531 6.199219 0.921875 Z M 6.199219 0.921875 "/></g></g></g><g fill="#1f1a17" fill-opacity="1"><g transform="translate(224.048809, 244.492162)"><g><path d="M 16.757812 -11.597656 C 16.117188 -12.039062 15.800781 -12.039062 15.398438 -11.558594 C 15 -11.078125 14.679688 -10.597656 14.320312 -10.121094 C 12.640625 -7.757812 10.878906 -5.441406 9 -3.238281 C 8.679688 -2.839844 8.359375 -2.480469 7.917969 -2.199219 C 7.320312 -1.800781 6.839844 -1.839844 6.320312 -2.398438 C 6 -2.761719 5.71875 -3.199219 5.601562 -3.640625 C 4.917969 -5.800781 4.398438 -8 4.320312 -10.28125 C 4.320312 -10.839844 4.480469 -11.078125 5.039062 -11.238281 C 8.160156 -12.160156 9.878906 -14.277344 10.359375 -17.4375 C 10.597656 -19.199219 10.078125 -20.679688 8.597656 -21.71875 C 7.160156 -22.71875 5.601562 -22.519531 4.121094 -21.679688 C 2.800781 -20.878906 1.839844 -19.71875 1.121094 -18.359375 C -0.078125 -16.039062 -0.558594 -13.558594 -0.679688 -10.960938 C -0.71875 -10.121094 -0.601562 -9.320312 -0.441406 -8.480469 C -0.078125 -6.238281 0.71875 -4.160156 2.199219 -2.359375 C 4.039062 -0.121094 8.640625 0.601562 10.917969 -2.480469 C 12.917969 -5.160156 14.878906 -7.878906 16.757812 -10.679688 C 16.957031 -10.960938 17.238281 -11.277344 16.757812 -11.597656 Z M 5 -16.519531 C 5.238281 -17.519531 5.601562 -18.519531 6 -19.480469 C 6.121094 -19.796875 6.320312 -20.160156 6.71875 -20.117188 C 7.078125 -20.078125 7.238281 -19.757812 7.398438 -19.4375 C 7.398438 -19.359375 7.441406 -19.277344 7.441406 -19.199219 C 8.121094 -17.117188 6.878906 -13.800781 5 -12.679688 C 4.839844 -12.558594 4.640625 -12.480469 4.359375 -12.558594 C 4.359375 -13.878906 4.679688 -15.199219 5 -16.519531 Z M 5 -16.519531 "/></g></g></g><g fill="#1f1a17" fill-opacity="1"><g transform="translate(239.127314, 244.492162)"><g><path d="M 13.71875 -5.480469 C 13.757812 -5.960938 13.757812 -6.480469 13.800781 -6.960938 C 14.199219 -10 14.320312 -13.121094 14.160156 -16.199219 C 14.117188 -17.277344 14.039062 -18.398438 13.800781 -19.4375 C 13.71875 -19.957031 13.480469 -20.199219 12.960938 -20.117188 C 12.160156 -20 11.320312 -19.917969 10.480469 -19.796875 C 10.28125 -19.757812 10 -19.71875 9.917969 -19.519531 C 9.679688 -19 9.320312 -19.160156 8.960938 -19.277344 C 8.160156 -19.519531 7.320312 -19.480469 6.519531 -19.277344 C 4.121094 -18.71875 2.519531 -17.238281 1.359375 -15.199219 C -0.199219 -12.4375 -0.878906 -9.4375 -0.640625 -6.28125 C -0.558594 -5.398438 -0.359375 -4.558594 0.0390625 -3.757812 C 0.28125 -3.199219 0.640625 -2.71875 1.28125 -2.519531 C 2.839844 -2.078125 4.441406 -2.160156 5.359375 -3.71875 C 5.558594 -4.121094 5.839844 -4.480469 6.039062 -4.878906 C 6.640625 -6.160156 7.238281 -7.398438 7.878906 -8.679688 C 7.960938 -8.878906 8 -9.199219 8.359375 -9.160156 C 8.359375 -8.800781 8.398438 -8.480469 8.359375 -8.160156 C 8.238281 -6.519531 8.039062 -4.917969 7.917969 -3.320312 C 7.839844 -2.320312 7.480469 -1.761719 6.519531 -1.441406 C 5 -0.921875 3.558594 -0.199219 2.28125 0.71875 C 1.121094 1.558594 0.160156 2.519531 -0.28125 3.960938 C -1 6.320312 0.359375 8.320312 2.839844 8.558594 C 5.28125 8.757812 7.359375 7.960938 9 6.160156 C 9.800781 5.320312 10.480469 4.359375 11.039062 3.320312 C 12 1.480469 12.640625 -0.441406 13.078125 -2.441406 C 13.199219 -3 13.480469 -3.441406 13.960938 -3.800781 C 15.359375 -4.878906 16.679688 -6.078125 17.917969 -7.359375 C 18.519531 -8.039062 19.078125 -8.757812 19.679688 -9.4375 C 20.039062 -9.878906 19.796875 -10.160156 19.4375 -10.480469 C 19.039062 -10.839844 18.839844 -10.4375 18.640625 -10.199219 C 18.480469 -10.039062 18.359375 -9.839844 18.238281 -9.679688 C 16.957031 -8.039062 15.519531 -6.679688 13.960938 -5.359375 C 13.878906 -5.398438 13.800781 -5.441406 13.71875 -5.480469 Z M 8.960938 -15.480469 C 8.238281 -13.359375 7.320312 -11.359375 6.359375 -9.359375 C 5.679688 -7.917969 5 -6.480469 4.28125 -5.078125 C 4.078125 -4.679688 3.917969 -4.078125 3.398438 -4.199219 C 2.800781 -4.320312 2.917969 -4.960938 2.878906 -5.398438 C 2.761719 -6.839844 3.121094 -8.199219 3.359375 -9.558594 C 3.839844 -12.039062 4.480469 -14.480469 5.960938 -16.597656 C 6.398438 -17.199219 6.800781 -17.757812 7.480469 -18.078125 C 8.480469 -18.558594 9.320312 -18.039062 9.28125 -16.757812 C 9.28125 -16.398438 9.121094 -15.960938 8.960938 -15.480469 Z M 5.199219 6.199219 C 5.160156 6.238281 5.121094 6.238281 5.121094 6.28125 C 4.640625 6.878906 4.160156 7.519531 3.28125 7.320312 C 2.359375 7.160156 1.917969 6.441406 1.679688 5.601562 C 1.441406 4.878906 1.601562 4.199219 1.917969 3.519531 C 2.199219 2.839844 2.679688 2.238281 3.238281 1.71875 C 4.398438 0.679688 5.757812 0 7.441406 -0.640625 C 7 1.960938 6.480469 4.199219 5.199219 6.199219 Z M 5.199219 6.199219 "/></g></g></g><g fill="#1f1a17" fill-opacity="1"><g transform="translate(257.48549, 244.492162)"><g><path d="M 11.757812 -11.679688 C 11.078125 -11.917969 11 -11.917969 10.597656 -11.199219 C 10.558594 -11.078125 10.480469 -10.917969 10.398438 -10.800781 C 9.078125 -8.199219 7.757812 -5.640625 6.441406 -3.039062 C 6.199219 -2.558594 5.960938 -2.121094 5.679688 -1.679688 C 5.28125 -1.078125 4.917969 -1.121094 4.558594 -1.71875 C 4.238281 -2.320312 4.039062 -3 3.917969 -3.640625 C 3.640625 -5.359375 3.640625 -7.121094 3.558594 -8.839844 C 3.441406 -12 3.757812 -15.160156 4 -18.320312 C 4.121094 -19.878906 4.078125 -19.917969 2.441406 -19.957031 C 2.359375 -19.957031 2.238281 -19.957031 2.121094 -19.957031 C 1.71875 -20 1.480469 -19.839844 1.359375 -19.4375 C 1.238281 -19.117188 1.078125 -18.839844 1 -18.480469 C 0.238281 -15.519531 -0.238281 -12.519531 -0.238281 -9.238281 C -0.28125 -7.71875 -0.160156 -6 0.238281 -4.28125 C 0.519531 -3.199219 0.878906 -2.199219 1.558594 -1.320312 C 3.238281 0.839844 6.71875 0.640625 8.078125 -1.71875 C 8.441406 -2.359375 8.757812 -3.078125 9.039062 -3.757812 C 10.039062 -6.039062 11.039062 -8.320312 12.039062 -10.597656 C 12.199219 -11.039062 12.398438 -11.4375 11.757812 -11.679688 Z M 3.320312 -22.078125 C 4.398438 -22.117188 5.039062 -22.71875 5.039062 -23.71875 C 5.039062 -24.679688 4.359375 -25.277344 3.199219 -25.238281 C 2.320312 -25.238281 1.601562 -24.398438 1.640625 -23.4375 C 1.640625 -22.519531 2.199219 -22.078125 3.320312 -22.078125 Z M 3.320312 -22.078125 "/></g></g></g><g fill="#1f1a17" fill-opacity="1"><g transform="translate(268.164429, 244.492162)"><g><path d="M 22.480469 -11.679688 C 21.796875 -11.839844 21.71875 -11.359375 21.558594 -10.917969 C 20.71875 -8.441406 19.796875 -5.960938 18.558594 -3.601562 C 18.160156 -2.839844 17.757812 -2.078125 17.199219 -1.398438 C 16.878906 -1 16.558594 -0.480469 15.960938 -0.601562 C 15.277344 -0.679688 15.320312 -1.359375 15.117188 -1.839844 C 15.078125 -1.960938 15.078125 -2.121094 15.039062 -2.28125 C 14.398438 -5.160156 14.679688 -8.039062 14.960938 -10.917969 C 15.117188 -12.480469 15.160156 -14 15 -15.558594 C 14.917969 -16.640625 14.71875 -17.71875 14.160156 -18.71875 C 13.398438 -20.078125 12.078125 -20.679688 10.519531 -20.320312 C 9.078125 -20 8.039062 -19.117188 7.160156 -18 C 6 -16.558594 5.160156 -14.960938 4.398438 -13.320312 C 4.238281 -13 4.160156 -12.640625 3.71875 -12.277344 C 3.71875 -12.757812 3.71875 -13.121094 3.71875 -13.480469 C 3.71875 -15.480469 3.71875 -17.480469 3.71875 -19.480469 C 3.71875 -19.757812 3.71875 -20.078125 3.679688 -20.398438 C 3.640625 -20.878906 3.398438 -21.117188 2.878906 -21.117188 C 2.199219 -21.078125 1.519531 -21.078125 0.839844 -21.078125 C 0.320312 -21.078125 0 -20.839844 -0.0390625 -20.320312 C -0.078125 -20.078125 -0.160156 -19.878906 -0.199219 -19.640625 C -1.039062 -14.640625 -1.28125 -9.597656 -1.039062 -4.519531 C -1 -3.160156 -0.761719 -1.761719 -0.558594 -0.398438 C -0.398438 0.761719 -0.238281 0.839844 0.921875 0.761719 C 1.320312 0.71875 1.679688 0.71875 2.078125 0.679688 C 3.078125 0.679688 3.078125 0.640625 3.28125 -0.359375 C 4 -4.199219 4.917969 -7.960938 6.199219 -11.640625 C 7 -13.917969 8.199219 -16.039062 9.71875 -17.917969 C 10 -18.238281 10.28125 -18.71875 10.800781 -18.597656 C 11.398438 -18.480469 11.4375 -17.878906 11.519531 -17.4375 C 11.839844 -16 11.960938 -14.558594 11.878906 -13.078125 C 11.757812 -10.359375 11.4375 -7.640625 11.597656 -4.917969 C 11.679688 -3.601562 11.878906 -2.28125 12.359375 -1.039062 C 12.640625 -0.359375 13.039062 0.28125 13.757812 0.640625 C 15.117188 1.238281 17.160156 0.921875 18.238281 -0.0390625 C 18.679688 -0.480469 19.078125 -0.921875 19.398438 -1.441406 C 21.238281 -4.238281 22.359375 -7.359375 23.199219 -10.597656 C 23.398438 -11.359375 23.199219 -11.480469 22.480469 -11.679688 Z M 22.480469 -11.679688 "/></g></g></g><g fill="#e77813" fill-opacity="1"><g transform="translate(230.222449, 283.136583)"><g><path d="M 8.839844 -0.839844 C 8.757812 -1.078125 8.71875 -1.28125 8.679688 -1.519531 C 8 -5.441406 7.679688 -9.359375 7.878906 -13.359375 C 8.039062 -17.078125 8.359375 -20.796875 8.640625 -24.519531 C 8.71875 -25.878906 8.71875 -27.238281 8.679688 -28.597656 C 8.597656 -29.679688 8.519531 -29.757812 7.359375 -29.796875 C 6.917969 -29.839844 6.480469 -29.839844 6 -29.878906 C 4.878906 -29.878906 4.878906 -29.878906 4.558594 -28.757812 C 4.480469 -28.476562 4.398438 -28.160156 4.320312 -27.878906 C 3.398438 -24.277344 2.71875 -20.597656 2.320312 -16.878906 C 1.960938 -13.359375 1.800781 -9.800781 2.28125 -6.28125 C 2.558594 -4.359375 2.917969 -2.441406 3.800781 -0.71875 C 4.878906 1.398438 5.917969 2.238281 8.839844 2 C 9.839844 1.917969 10.597656 1.480469 11.199219 0.679688 C 11.960938 -0.320312 12.519531 -1.441406 12.960938 -2.601562 C 13.597656 -4.398438 14.078125 -6.199219 14.558594 -8.039062 C 14.679688 -8.359375 14.71875 -8.71875 15.039062 -9.199219 C 15.277344 -8.519531 15.4375 -8 15.640625 -7.480469 C 17.078125 -3.800781 19.640625 -2.039062 23.4375 -2.160156 C 25.636719 -2.238281 27.519531 -2.917969 28.796875 -4.839844 C 29.199219 -5.519531 29.519531 -6.238281 29.757812 -7 C 30.078125 -7.960938 30.316406 -8.960938 30.476562 -9.960938 C 30.597656 -10.800781 30.636719 -10.757812 31.398438 -10.558594 C 32.117188 -10.320312 32.796875 -10.121094 33.476562 -9.960938 C 35.117188 -9.558594 36.757812 -9.519531 38.4375 -9.71875 C 38.796875 -9.800781 39.078125 -9.878906 39.078125 -10.320312 C 39.078125 -10.917969 38.71875 -10.960938 38.238281 -10.917969 C 36.039062 -10.839844 33.917969 -11.320312 31.917969 -12.359375 C 31.15625 -12.757812 30.796875 -13.277344 30.878906 -14.238281 C 31 -17.117188 30.917969 -20.039062 30.199219 -22.878906 C 29.839844 -24.398438 29.277344 -25.839844 28.316406 -27.078125 C 27.519531 -28.039062 26.597656 -28.796875 25.398438 -29.15625 C 23.160156 -29.796875 21.359375 -28.679688 21 -26.398438 C 20.71875 -24.679688 21.117188 -23.078125 21.679688 -21.519531 C 22.796875 -18.320312 24.636719 -15.558594 27.078125 -13.277344 C 27.519531 -12.878906 27.71875 -12.480469 27.597656 -11.878906 C 27.199219 -9.757812 26.636719 -7.71875 25.558594 -5.800781 C 25.359375 -5.480469 25.160156 -5.160156 24.878906 -4.917969 C 24.238281 -4.28125 23.558594 -4.28125 22.917969 -4.960938 C 22.4375 -5.441406 22.160156 -6.078125 21.878906 -6.679688 C 20.796875 -9.121094 20.277344 -11.71875 19.796875 -14.320312 C 19.4375 -16.039062 19.160156 -17.800781 18.597656 -19.480469 C 18.398438 -20.078125 18.117188 -20.398438 17.4375 -20.320312 C 16.957031 -20.238281 16.480469 -20.277344 16 -20.238281 C 15 -20.199219 14.917969 -20.117188 14.71875 -19.160156 C 14.519531 -18.160156 14.398438 -17.160156 14.160156 -16.160156 C 13.640625 -13.839844 13.039062 -11.480469 12.398438 -9.160156 C 11.800781 -6.800781 11.199219 -4.480469 10.121094 -2.28125 C 9.839844 -1.679688 9.558594 -1.078125 9 -0.519531 C 8.917969 -0.71875 8.839844 -0.800781 8.839844 -0.839844 Z M 23.796875 -26 C 23.796875 -26.078125 23.796875 -26.160156 23.796875 -26.238281 C 23.839844 -26.839844 23.71875 -27.597656 24.359375 -27.839844 C 24.878906 -28 25.320312 -27.398438 25.71875 -27 C 26.4375 -26.199219 26.917969 -25.277344 27.238281 -24.277344 C 28.117188 -21.636719 28.199219 -18.957031 27.917969 -16.238281 C 25.679688 -19.160156 23.839844 -22.199219 23.796875 -26 Z M 23.796875 -26 "/></g></g></g><g fill="#1f1a17" fill-opacity="1"><g transform="translate(266.902134, 283.136583)"><g><path d="M 11.757812 -11.679688 C 11.078125 -11.917969 11 -11.917969 10.597656 -11.199219 C 10.558594 -11.078125 10.480469 -10.917969 10.398438 -10.800781 C 9.078125 -8.199219 7.757812 -5.640625 6.441406 -3.039062 C 6.199219 -2.558594 5.960938 -2.121094 5.679688 -1.679688 C 5.28125 -1.078125 4.917969 -1.121094 4.558594 -1.71875 C 4.238281 -2.320312 4.039062 -3 3.917969 -3.640625 C 3.640625 -5.359375 3.640625 -7.121094 3.558594 -8.839844 C 3.441406 -12 3.757812 -15.160156 4 -18.320312 C 4.121094 -19.878906 4.078125 -19.917969 2.441406 -19.957031 C 2.359375 -19.957031 2.238281 -19.957031 2.121094 -19.957031 C 1.71875 -20 1.480469 -19.839844 1.359375 -19.4375 C 1.238281 -19.117188 1.078125 -18.839844 1 -18.480469 C 0.238281 -15.519531 -0.238281 -12.519531 -0.238281 -9.238281 C -0.28125 -7.71875 -0.160156 -6 0.238281 -4.28125 C 0.519531 -3.199219 0.878906 -2.199219 1.558594 -1.320312 C 3.238281 0.839844 6.71875 0.640625 8.078125 -1.71875 C 8.441406 -2.359375 8.757812 -3.078125 9.039062 -3.757812 C 10.039062 -6.039062 11.039062 -8.320312 12.039062 -10.597656 C 12.199219 -11.039062 12.398438 -11.4375 11.757812 -11.679688 Z M 3.320312 -22.078125 C 4.398438 -22.117188 5.039062 -22.71875 5.039062 -23.71875 C 5.039062 -24.679688 4.359375 -25.277344 3.199219 -25.238281 C 2.320312 -25.238281 1.601562 -24.398438 1.640625 -23.4375 C 1.640625 -22.519531 2.199219 -22.078125 3.320312 -22.078125 Z M 3.320312 -22.078125 "/></g></g></g><g fill="#1f1a17" fill-opacity="1"><g transform="translate(277.581074, 283.136583)"><g><path d="M 3.917969 -17.480469 C 4.960938 -15 6 -12.519531 6.800781 -10 C 7.238281 -8.597656 7.238281 -8.597656 5.878906 -7.960938 C 4.359375 -7.238281 2.960938 -6.398438 1.960938 -5 C 0.28125 -2.558594 1.160156 0.398438 3.960938 1.359375 C 6.078125 2.078125 8.121094 1.878906 10.039062 0.640625 C 11.078125 -0.0390625 11.800781 -1 12.121094 -2.238281 C 12.398438 -3.359375 12.519531 -4.519531 12.320312 -5.71875 C 12.199219 -6.320312 12.121094 -6.878906 12 -7.480469 C 11.800781 -8.519531 11.800781 -8.519531 12.800781 -8.917969 C 13.359375 -9.121094 13.917969 -9.359375 14.480469 -9.597656 C 15.480469 -10.121094 16.4375 -10.757812 17.320312 -11.4375 C 17.558594 -11.640625 17.839844 -11.839844 17.679688 -12.199219 C 17.480469 -12.558594 17.117188 -12.640625 16.71875 -12.558594 C 16.359375 -12.480469 16.078125 -12.277344 15.839844 -12.078125 C 14.71875 -11.320312 13.558594 -10.71875 12.320312 -10.238281 C 11.398438 -9.839844 11.359375 -9.839844 11.078125 -10.800781 C 9.917969 -14.320312 8.160156 -17.519531 6.238281 -20.640625 C 5.757812 -21.4375 5.121094 -22.117188 4.359375 -22.679688 C 3.238281 -23.519531 2.441406 -23.199219 2.121094 -21.878906 C 1.878906 -20.917969 1.679688 -19.957031 1.480469 -19 C 0.199219 -13.238281 -0.878906 -7.398438 -2.800781 -1.800781 C -3.078125 -1.078125 -3.28125 -0.359375 -3.519531 0.359375 C -3.71875 0.839844 -3.519531 1 -3.039062 1.078125 C -2.160156 1.238281 -1.917969 1.160156 -1.519531 0.199219 C 0.320312 -4.359375 1.800781 -9.039062 2.71875 -13.839844 C 2.960938 -15.199219 3.121094 -16.558594 3.558594 -18.078125 C 3.757812 -17.757812 3.878906 -17.640625 3.917969 -17.480469 Z M 7.878906 -1.078125 C 7.359375 0.320312 6.160156 0.640625 5 -0.238281 C 3.878906 -1.078125 3.480469 -2.398438 4 -3.757812 C 4.558594 -5.28125 5.757812 -6.160156 7.121094 -6.878906 C 7.519531 -7.039062 7.71875 -6.878906 7.800781 -6.519531 C 8.039062 -5.480469 8.238281 -4.441406 8.238281 -3.28125 C 8.28125 -2.601562 8.160156 -1.800781 7.878906 -1.078125 Z M 7.878906 -1.078125 "/></g></g></g><g fill="#1f1a17" fill-opacity="1"><g transform="translate(293.339507, 283.136583)"><g><path d="M 16.757812 -11.597656 C 16.117188 -12.039062 15.800781 -12.039062 15.398438 -11.558594 C 15 -11.078125 14.679688 -10.597656 14.320312 -10.121094 C 12.640625 -7.757812 10.878906 -5.441406 9 -3.238281 C 8.679688 -2.839844 8.359375 -2.480469 7.917969 -2.199219 C 7.320312 -1.800781 6.839844 -1.839844 6.320312 -2.398438 C 6 -2.761719 5.71875 -3.199219 5.601562 -3.640625 C 4.917969 -5.800781 4.398438 -8 4.320312 -10.28125 C 4.320312 -10.839844 4.480469 -11.078125 5.039062 -11.238281 C 8.160156 -12.160156 9.878906 -14.277344 10.359375 -17.4375 C 10.597656 -19.199219 10.078125 -20.679688 8.597656 -21.71875 C 7.160156 -22.71875 5.601562 -22.519531 4.121094 -21.679688 C 2.800781 -20.878906 1.839844 -19.71875 1.121094 -18.359375 C -0.078125 -16.039062 -0.558594 -13.558594 -0.679688 -10.960938 C -0.71875 -10.121094 -0.601562 -9.320312 -0.441406 -8.480469 C -0.078125 -6.238281 0.71875 -4.160156 2.199219 -2.359375 C 4.039062 -0.121094 8.640625 0.601562 10.917969 -2.480469 C 12.917969 -5.160156 14.878906 -7.878906 16.757812 -10.679688 C 16.957031 -10.960938 17.238281 -11.277344 16.757812 -11.597656 Z M 5 -16.519531 C 5.238281 -17.519531 5.601562 -18.519531 6 -19.480469 C 6.121094 -19.796875 6.320312 -20.160156 6.71875 -20.117188 C 7.078125 -20.078125 7.238281 -19.757812 7.398438 -19.4375 C 7.398438 -19.359375 7.441406 -19.277344 7.441406 -19.199219 C 8.121094 -17.117188 6.878906 -13.800781 5 -12.679688 C 4.839844 -12.558594 4.640625 -12.480469 4.359375 -12.558594 C 4.359375 -13.878906 4.679688 -15.199219 5 -16.519531 Z M 5 -16.519531 "/></g></g></g></svg>